<mxfile host="Electron" agent="Mozilla/5.0 (Macintosh; Intel Mac OS X 10_15_7) AppleWebKit/537.36 (KHTML, like Gecko) draw.io/24.7.17 Chrome/128.0.6613.36 Electron/32.0.1 Safari/537.36" version="24.7.17" pages="3">
  <diagram name="Diagrama Sistema" id="1ajEN9bGu0FGpsTc6NJU">
    <mxGraphModel dx="1434" dy="1954" grid="1" gridSize="10" guides="1" tooltips="1" connect="1" arrows="1" fold="1" page="1" pageScale="1" pageWidth="850" pageHeight="1100" math="0" shadow="0">
      <root>
        <mxCell id="0" />
        <mxCell id="1" parent="0" />
        <object label="&lt;font style=&quot;font-size: 14px&quot;&gt;&lt;b&gt;%A_NAME%&lt;/b&gt;&lt;/font&gt;&lt;br&gt;&lt;div&gt;&lt;font style=&quot;font-size: 11px&quot;&gt;[Person]&lt;/font&gt;&lt;/div&gt;&lt;div style=&quot;font-size: 6px&quot;&gt;&lt;br&gt;&lt;/div&gt;&lt;div style=&quot;font-size: 11px&quot;&gt;&lt;font color=&quot;#CCCCCC&quot;&gt;%B_DESCRIPTION%&lt;/font&gt;&lt;/div&gt;" A_NAME="Customer" B_DESCRIPTION="Cliente del ecommerce" placeholders="1" id="dmVqfR0XympkgJ1C2OWk-18">
          <mxCell style="shape=stencil(tZTdboMwDIWfJpdFIVnHbiu6vUca3GEVEpRk6s/TL+BULVpTTWorceNz4OM42DBZ+1YNwAQ3qgcm10yI9qhtv9BviwGctyYq0W7JK9851ftUf6Ra+QF0IHGLB2hI9sHZHeyxCQmApgWHYXTlJ+OreM94yVpbYyIBrfEz58qPMIUmPssPBOPFkl5zTDVVMTf2EMCljKQy8fV/8BxbVM8Cl68C80LMz6J8Hvll4OoBsqyjkhsaWW+U3n07+2Oam3kmx40Tm/nmuTk/7wE/z73THk9pcyS/fwpb7DraiFxDmdjxUevgTj/QdTh4uHSzvLkZqZtq3kz1cOw/6SaVfi2T8As=);whiteSpace=wrap;html=1;rounded=1;fontColor=#ffffff;strokeColor=#000054;fillColor=#000084;spacing=5;spacingTop=65;arcSize=30;metaEdit=1;allowArrows=0;expand=0;recursiveResize=0;rotatable=0;resizable=0;" vertex="1" parent="1">
            <mxGeometry x="337" y="-60" width="180" height="160" as="geometry" />
          </mxCell>
        </object>
        <object label="&lt;div align=&quot;left&quot;&gt;&lt;font color=&quot;#4D4D4D&quot;&gt;&lt;b&gt;%A_NAME%&lt;br&gt;&lt;/b&gt;&lt;/font&gt;&lt;/div&gt;&lt;div align=&quot;left&quot;&gt;&lt;font style=&quot;font-size: 11px&quot; color=&quot;#4D4D4D&quot;&gt;[Software System]&lt;/font&gt;&lt;/div&gt;" placeholders="1" A_NAME="E-commerce Paul" id="dmVqfR0XympkgJ1C2OWk-19">
          <mxCell style="rounded=1;whiteSpace=wrap;html=1;dashed=1;arcSize=20;labelBackgroundColor=none;align=left;verticalAlign=bottom;labelBorderColor=none;spacingTop=0;spacing=10;dashPattern=8 4;metaEdit=1;rotatable=0;perimeter=rectanglePerimeter;noLabel=0;labelPadding=0;allowArrows=0;connectable=0;expand=0;recursiveResize=0;editable=1;pointerEvents=1;absoluteArcSize=1;fillColor=#f5f5f5;strokeColor=#666666;fontColor=#333333;" vertex="1" parent="1">
            <mxGeometry x="80" y="191" width="757" height="579" as="geometry" />
          </mxCell>
        </object>
        <object label="&lt;font style=&quot;font-size: 14px&quot;&gt;&lt;b&gt;%A_NAME%&lt;/b&gt;&lt;/font&gt;&lt;br&gt;&lt;div&gt;&lt;font style=&quot;font-size: 11px&quot;&gt;[Software System]&lt;/font&gt;&lt;/div&gt;&lt;div style=&quot;font-size: 6px&quot;&gt;&lt;br&gt;&lt;/div&gt;&lt;div style=&quot;font-size: 11px&quot;&gt;&lt;font color=&quot;#CCCCCC&quot;&gt;%B_DESCRIPTION%&lt;/font&gt;&lt;/div&gt;" placeholders="1" A_NAME="E-commerce Store" B_DESCRIPTION="Aplicación Web de venta de productos online" id="dmVqfR0XympkgJ1C2OWk-20">
          <mxCell style="rounded=1;whiteSpace=wrap;html=1;fontColor=#ffffff;arcSize=6;metaEdit=1;points=[[0.25,0,0],[0.5,0,0],[0.75,0,0],[1,0.25,0],[1,0.5,0],[1,0.75,0],[0.75,1,0],[0.5,1,0],[0.25,1,0],[0,0.75,0],[0,0.5,0],[0,0.25,0]];resizable=0;editable=1;fillColor=#48279E;strokeColor=#2C186C;movableLabel=0;allowArrows=0;rotatable=0;imageWidth=24;spacing=5;" vertex="1" parent="1">
            <mxGeometry x="317" y="425" width="220" height="100" as="geometry" />
          </mxCell>
        </object>
        <object label="&lt;font style=&quot;font-size: 14px&quot;&gt;&lt;b&gt;%A_NAME%&lt;/b&gt;&lt;/font&gt;&lt;br&gt;&lt;div&gt;&lt;font style=&quot;font-size: 11px&quot;&gt;[Software System]&lt;/font&gt;&lt;/div&gt;&lt;div style=&quot;font-size: 6px&quot;&gt;&lt;br&gt;&lt;/div&gt;&lt;div style=&quot;font-size: 11px&quot;&gt;&lt;font color=&quot;#CCCCCC&quot;&gt;%B_DESCRIPTION%&lt;/font&gt;&lt;/div&gt;" placeholders="1" A_NAME="Fedex API" B_DESCRIPTION="Proveedor de paquetería" id="dmVqfR0XympkgJ1C2OWk-21">
          <mxCell style="rounded=1;whiteSpace=wrap;html=1;fontColor=#ffffff;arcSize=6;metaEdit=1;points=[[0.25,0,0],[0.5,0,0],[0.75,0,0],[1,0.25,0],[1,0.5,0],[1,0.75,0],[0.75,1,0],[0.5,1,0],[0.25,1,0],[0,0.75,0],[0,0.5,0],[0,0.25,0]];resizable=0;editable=1;fillColor=#7b7484;strokeColor=#635970;movableLabel=0;allowArrows=0;rotatable=0;imageWidth=24;spacing=5;" vertex="1" parent="1">
            <mxGeometry x="865" y="313" width="220" height="100" as="geometry" />
          </mxCell>
        </object>
        <object label="&lt;font style=&quot;font-size: 14px&quot;&gt;&lt;b&gt;%A_NAME%&lt;/b&gt;&lt;/font&gt;&lt;br&gt;&lt;div&gt;&lt;font style=&quot;font-size: 11px&quot;&gt;[Software System]&lt;/font&gt;&lt;/div&gt;&lt;div style=&quot;font-size: 6px&quot;&gt;&lt;br&gt;&lt;/div&gt;&lt;div style=&quot;font-size: 11px&quot;&gt;&lt;font color=&quot;#CCCCCC&quot;&gt;%B_DESCRIPTION%&lt;/font&gt;&lt;/div&gt;" placeholders="1" A_NAME="Microsoft Entra ID (SSO)" B_DESCRIPTION="Autenticación y Autorización de usuarios" id="dmVqfR0XympkgJ1C2OWk-22">
          <mxCell style="rounded=1;whiteSpace=wrap;html=1;fontColor=#ffffff;arcSize=6;metaEdit=1;points=[[0.25,0,0],[0.5,0,0],[0.75,0,0],[1,0.25,0],[1,0.5,0],[1,0.75,0],[0.75,1,0],[0.5,1,0],[0.25,1,0],[0,0.75,0],[0,0.5,0],[0,0.25,0]];resizable=0;editable=1;fillColor=#7b7484;strokeColor=#635970;movableLabel=0;allowArrows=0;rotatable=0;imageWidth=24;spacing=5;" vertex="1" parent="1">
            <mxGeometry x="317" y="648" width="220" height="100" as="geometry" />
          </mxCell>
        </object>
        <object label="&lt;div style=&quot;font-size: 12px;&quot;&gt;&lt;b style=&quot;font-size: 12px;&quot;&gt;%A_DESCRIPTION%&lt;/b&gt;&lt;br style=&quot;font-size: 12px;&quot;&gt;&lt;/div&gt;" placeholders="1" A_DESCRIPTION="Autenticación y Autorización" id="dmVqfR0XympkgJ1C2OWk-23">
          <mxCell style="endArrow=block;html=1;fontSize=12;fontColor=#404040;strokeWidth=1;endFill=1;strokeColor=#828282;elbow=vertical;metaEdit=1;backgroundOutline=0;editable=1;" edge="1" parent="1" source="dmVqfR0XympkgJ1C2OWk-20" target="dmVqfR0XympkgJ1C2OWk-22">
            <mxGeometry width="50" height="50" relative="1" as="geometry">
              <mxPoint x="461" y="640" as="sourcePoint" />
              <mxPoint x="701" y="640" as="targetPoint" />
            </mxGeometry>
          </mxCell>
        </object>
        <object label="&lt;div style=&quot;font-size: 12px;&quot;&gt;&lt;b style=&quot;font-size: 12px;&quot;&gt;%A_DESCRIPTION%&lt;/b&gt;&lt;br style=&quot;font-size: 12px;&quot;&gt;&lt;/div&gt;" placeholders="1" A_DESCRIPTION="Realiza pedidos" id="dmVqfR0XympkgJ1C2OWk-24">
          <mxCell style="endArrow=block;html=1;fontSize=12;fontColor=#404040;strokeWidth=1;endFill=1;strokeColor=#828282;elbow=vertical;metaEdit=1;backgroundOutline=0;editable=1;exitX=0.5;exitY=1;exitDx=0;exitDy=0;entryX=0.5;entryY=0;entryDx=0;entryDy=0;entryPerimeter=0;" edge="1" parent="1" source="dmVqfR0XympkgJ1C2OWk-18" target="dmVqfR0XympkgJ1C2OWk-20">
            <mxGeometry x="-0.6719" width="50" height="50" relative="1" as="geometry">
              <mxPoint x="498" y="620" as="sourcePoint" />
              <mxPoint x="498" y="756" as="targetPoint" />
              <mxPoint as="offset" />
            </mxGeometry>
          </mxCell>
        </object>
        <object label="&lt;div style=&quot;font-size: 12px;&quot;&gt;&lt;b style=&quot;font-size: 12px;&quot;&gt;%A_DESCRIPTION%&lt;/b&gt;&lt;br style=&quot;font-size: 12px;&quot;&gt;&lt;/div&gt;" placeholders="1" A_DESCRIPTION="Cotizar envíos&#xa;Programar envios&#xa;Consultar status" id="dmVqfR0XympkgJ1C2OWk-25">
          <mxCell style="endArrow=block;html=1;fontSize=12;fontColor=#404040;strokeWidth=1;endFill=1;strokeColor=#828282;elbow=vertical;metaEdit=1;backgroundOutline=0;editable=1;exitX=1;exitY=0.5;exitDx=0;exitDy=0;exitPerimeter=0;entryX=0;entryY=0.5;entryDx=0;entryDy=0;entryPerimeter=0;" edge="1" parent="1" source="dmVqfR0XympkgJ1C2OWk-20" target="dmVqfR0XympkgJ1C2OWk-21">
            <mxGeometry x="-0.0032" width="50" height="50" relative="1" as="geometry">
              <mxPoint x="398" y="626" as="sourcePoint" />
              <mxPoint x="398" y="762" as="targetPoint" />
              <mxPoint as="offset" />
            </mxGeometry>
          </mxCell>
        </object>
        <object label="&lt;div style=&quot;font-size: 12px;&quot;&gt;&lt;b style=&quot;font-size: 12px;&quot;&gt;%A_DESCRIPTION%&lt;/b&gt;&lt;br style=&quot;font-size: 12px;&quot;&gt;&lt;/div&gt;" placeholders="1" A_DESCRIPTION="Envía email de confirmación al cliente" id="dmVqfR0XympkgJ1C2OWk-26">
          <mxCell style="endArrow=block;html=1;fontSize=12;fontColor=#404040;strokeWidth=1;endFill=1;strokeColor=#828282;elbow=vertical;metaEdit=1;backgroundOutline=0;editable=1;exitX=0;exitY=0.25;exitDx=0;exitDy=0;exitPerimeter=0;entryX=0.75;entryY=1;entryDx=0;entryDy=0;" edge="1" parent="1" source="dmVqfR0XympkgJ1C2OWk-27" target="dmVqfR0XympkgJ1C2OWk-18">
            <mxGeometry width="50" height="50" relative="1" as="geometry">
              <mxPoint x="777" y="380" as="sourcePoint" />
              <mxPoint x="818" y="422" as="targetPoint" />
            </mxGeometry>
          </mxCell>
        </object>
        <object label="&lt;font style=&quot;font-size: 14px&quot;&gt;&lt;b&gt;%A_NAME%&lt;/b&gt;&lt;/font&gt;&lt;br&gt;&lt;div&gt;&lt;font style=&quot;font-size: 11px&quot;&gt;[Software System]&lt;/font&gt;&lt;/div&gt;&lt;div style=&quot;font-size: 6px&quot;&gt;&lt;br&gt;&lt;/div&gt;&lt;div style=&quot;font-size: 11px&quot;&gt;&lt;font color=&quot;#CCCCCC&quot;&gt;%B_DESCRIPTION%&lt;/font&gt;&lt;/div&gt;" placeholders="1" A_NAME="Mailchimp" B_DESCRIPTION="Proveedor externo de envío de correo electrónicos" id="dmVqfR0XympkgJ1C2OWk-27">
          <mxCell style="rounded=1;whiteSpace=wrap;html=1;fontColor=#ffffff;arcSize=6;metaEdit=1;points=[[0.25,0,0],[0.5,0,0],[0.75,0,0],[1,0.25,0],[1,0.5,0],[1,0.75,0],[0.75,1,0],[0.5,1,0],[0.25,1,0],[0,0.75,0],[0,0.5,0],[0,0.25,0]];resizable=0;editable=1;fillColor=#7b7484;strokeColor=#635970;movableLabel=0;allowArrows=0;rotatable=0;imageWidth=24;spacing=5;" vertex="1" parent="1">
            <mxGeometry x="865" y="202" width="220" height="100" as="geometry" />
          </mxCell>
        </object>
        <object label="&lt;div style=&quot;font-size: 12px;&quot;&gt;&lt;b style=&quot;font-size: 12px;&quot;&gt;%A_DESCRIPTION%&lt;/b&gt;&lt;br style=&quot;font-size: 12px;&quot;&gt;&lt;/div&gt;" placeholders="1" A_DESCRIPTION="Envío de email&#xa;Listas de correos" id="dmVqfR0XympkgJ1C2OWk-28">
          <mxCell style="endArrow=block;html=1;fontSize=12;fontColor=#404040;strokeWidth=1;endFill=1;strokeColor=#828282;elbow=vertical;metaEdit=1;backgroundOutline=0;editable=1;exitX=1;exitY=0.5;exitDx=0;exitDy=0;exitPerimeter=0;entryX=0;entryY=0.5;entryDx=0;entryDy=0;entryPerimeter=0;" edge="1" parent="1" source="dmVqfR0XympkgJ1C2OWk-20" target="dmVqfR0XympkgJ1C2OWk-27">
            <mxGeometry width="50" height="50" relative="1" as="geometry">
              <mxPoint x="887" y="430" as="sourcePoint" />
              <mxPoint x="492" y="166" as="targetPoint" />
            </mxGeometry>
          </mxCell>
        </object>
        <object label="&lt;font style=&quot;font-size: 14px&quot;&gt;&lt;b&gt;%A_NAME%&lt;/b&gt;&lt;/font&gt;&lt;br&gt;&lt;div&gt;&lt;font style=&quot;font-size: 11px&quot;&gt;[Software System]&lt;/font&gt;&lt;/div&gt;&lt;div style=&quot;font-size: 6px&quot;&gt;&lt;br&gt;&lt;/div&gt;&lt;div style=&quot;font-size: 11px&quot;&gt;&lt;font color=&quot;#CCCCCC&quot;&gt;%B_DESCRIPTION%&lt;/font&gt;&lt;/div&gt;" placeholders="1" A_NAME="Stripe" B_DESCRIPTION="Pasarela de pagos" id="dmVqfR0XympkgJ1C2OWk-29">
          <mxCell style="rounded=1;whiteSpace=wrap;html=1;fontColor=#ffffff;arcSize=6;metaEdit=1;points=[[0.25,0,0],[0.5,0,0],[0.75,0,0],[1,0.25,0],[1,0.5,0],[1,0.75,0],[0.75,1,0],[0.5,1,0],[0.25,1,0],[0,0.75,0],[0,0.5,0],[0,0.25,0]];resizable=0;editable=1;fillColor=#7b7484;strokeColor=#635970;movableLabel=0;allowArrows=0;rotatable=0;imageWidth=24;spacing=5;" vertex="1" parent="1">
            <mxGeometry x="865" y="425" width="220" height="100" as="geometry" />
          </mxCell>
        </object>
        <object label="&lt;font style=&quot;font-size: 14px&quot;&gt;&lt;b&gt;%A_NAME%&lt;/b&gt;&lt;/font&gt;&lt;br&gt;&lt;div&gt;&lt;font style=&quot;font-size: 11px&quot;&gt;[Software System]&lt;/font&gt;&lt;/div&gt;&lt;div style=&quot;font-size: 6px&quot;&gt;&lt;br&gt;&lt;/div&gt;&lt;div style=&quot;font-size: 11px&quot;&gt;&lt;font color=&quot;#CCCCCC&quot;&gt;%B_DESCRIPTION%&lt;/font&gt;&lt;/div&gt;" placeholders="1" A_NAME="PayPal" B_DESCRIPTION="Pasarela de pagos" id="dmVqfR0XympkgJ1C2OWk-30">
          <mxCell style="rounded=1;whiteSpace=wrap;html=1;fontColor=#ffffff;arcSize=6;metaEdit=1;points=[[0.25,0,0],[0.5,0,0],[0.75,0,0],[1,0.25,0],[1,0.5,0],[1,0.75,0],[0.75,1,0],[0.5,1,0],[0.25,1,0],[0,0.75,0],[0,0.5,0],[0,0.25,0]];resizable=0;editable=1;fillColor=#7b7484;strokeColor=#635970;movableLabel=0;allowArrows=0;rotatable=0;imageWidth=24;spacing=5;" vertex="1" parent="1">
            <mxGeometry x="865" y="536" width="220" height="100" as="geometry" />
          </mxCell>
        </object>
        <object label="&lt;div style=&quot;font-size: 12px;&quot;&gt;&lt;b style=&quot;font-size: 12px;&quot;&gt;%A_DESCRIPTION%&lt;/b&gt;&lt;br style=&quot;font-size: 12px;&quot;&gt;&lt;/div&gt;" placeholders="1" A_DESCRIPTION="Realizar cobros" id="dmVqfR0XympkgJ1C2OWk-31">
          <mxCell style="endArrow=block;html=1;fontSize=12;fontColor=#404040;strokeWidth=1;endFill=1;strokeColor=#828282;elbow=vertical;metaEdit=1;backgroundOutline=0;editable=1;exitX=1;exitY=0.5;exitDx=0;exitDy=0;exitPerimeter=0;entryX=0;entryY=0.5;entryDx=0;entryDy=0;entryPerimeter=0;" edge="1" parent="1" source="dmVqfR0XympkgJ1C2OWk-20" target="dmVqfR0XympkgJ1C2OWk-29">
            <mxGeometry x="-0.0032" width="50" height="50" relative="1" as="geometry">
              <mxPoint x="609" y="459" as="sourcePoint" />
              <mxPoint x="875" y="373" as="targetPoint" />
              <mxPoint as="offset" />
            </mxGeometry>
          </mxCell>
        </object>
        <object label="&lt;div style=&quot;font-size: 12px;&quot;&gt;&lt;b style=&quot;font-size: 12px;&quot;&gt;%A_DESCRIPTION%&lt;/b&gt;&lt;br style=&quot;font-size: 12px;&quot;&gt;&lt;/div&gt;" placeholders="1" A_DESCRIPTION="Realizar cobros" id="dmVqfR0XympkgJ1C2OWk-32">
          <mxCell style="endArrow=block;html=1;fontSize=12;fontColor=#404040;strokeWidth=1;endFill=1;strokeColor=#828282;elbow=vertical;metaEdit=1;backgroundOutline=0;editable=1;exitX=1;exitY=0.5;exitDx=0;exitDy=0;exitPerimeter=0;entryX=0;entryY=0.5;entryDx=0;entryDy=0;entryPerimeter=0;" edge="1" parent="1" source="dmVqfR0XympkgJ1C2OWk-20" target="dmVqfR0XympkgJ1C2OWk-30">
            <mxGeometry x="-0.0032" width="50" height="50" relative="1" as="geometry">
              <mxPoint x="609" y="434" as="sourcePoint" />
              <mxPoint x="875" y="485" as="targetPoint" />
              <mxPoint as="offset" />
            </mxGeometry>
          </mxCell>
        </object>
        <object label="&lt;font style=&quot;font-size: 14px&quot;&gt;&lt;b&gt;%A_NAME%&lt;/b&gt;&lt;/font&gt;&lt;br&gt;&lt;div&gt;&lt;font style=&quot;font-size: 11px&quot;&gt;[Software System]&lt;/font&gt;&lt;/div&gt;&lt;div style=&quot;font-size: 6px&quot;&gt;&lt;br&gt;&lt;/div&gt;&lt;div style=&quot;font-size: 11px&quot;&gt;&lt;font color=&quot;#CCCCCC&quot;&gt;%B_DESCRIPTION%&lt;/font&gt;&lt;/div&gt;" placeholders="1" A_NAME="ERP" B_DESCRIPTION="ERP desde el cúal se gestiona el catálogo de productos e inventario." id="dmVqfR0XympkgJ1C2OWk-33">
          <mxCell style="rounded=1;whiteSpace=wrap;html=1;fontColor=#ffffff;arcSize=6;metaEdit=1;points=[[0.25,0,0],[0.5,0,0],[0.75,0,0],[1,0.25,0],[1,0.5,0],[1,0.75,0],[0.75,1,0],[0.5,1,0],[0.25,1,0],[0,0.75,0],[0,0.5,0],[0,0.25,0]];resizable=0;editable=1;fillColor=#7b7484;strokeColor=#635970;movableLabel=0;allowArrows=0;rotatable=0;imageWidth=24;spacing=5;" vertex="1" parent="1">
            <mxGeometry x="106" y="220" width="220" height="100" as="geometry" />
          </mxCell>
        </object>
        <object label="&lt;div style=&quot;font-size: 12px;&quot;&gt;&lt;b style=&quot;font-size: 12px;&quot;&gt;%A_DESCRIPTION%&lt;/b&gt;&lt;br style=&quot;font-size: 12px;&quot;&gt;&lt;/div&gt;" placeholders="1" A_DESCRIPTION="Administración de productos e inventarios" id="dmVqfR0XympkgJ1C2OWk-34">
          <mxCell style="endArrow=block;html=1;fontSize=12;fontColor=#404040;strokeWidth=1;endFill=1;strokeColor=#828282;elbow=vertical;metaEdit=1;backgroundOutline=0;editable=1;exitX=0.25;exitY=0;exitDx=0;exitDy=0;exitPerimeter=0;entryX=0.5;entryY=1;entryDx=0;entryDy=0;entryPerimeter=0;" edge="1" parent="1" source="dmVqfR0XympkgJ1C2OWk-20" target="dmVqfR0XympkgJ1C2OWk-33">
            <mxGeometry width="50" height="50" relative="1" as="geometry">
              <mxPoint x="416" y="516" as="sourcePoint" />
              <mxPoint x="474" y="665" as="targetPoint" />
            </mxGeometry>
          </mxCell>
        </object>
      </root>
    </mxGraphModel>
  </diagram>
  <diagram id="H4YPhY1PzfQM33fj44Cc" name="Diagrama Contenedores">
    <mxGraphModel dx="1434" dy="854" grid="1" gridSize="10" guides="1" tooltips="1" connect="1" arrows="1" fold="1" page="1" pageScale="1" pageWidth="850" pageHeight="1100" math="0" shadow="0">
      <root>
        <mxCell id="0" />
        <mxCell id="1" parent="0" />
        <object label="&lt;div align=&quot;left&quot;&gt;&lt;font color=&quot;#4D4D4D&quot;&gt;&lt;b&gt;%A_NAME%&lt;br&gt;&lt;/b&gt;&lt;/font&gt;&lt;/div&gt;&lt;div align=&quot;left&quot;&gt;&lt;font style=&quot;font-size: 11px&quot; color=&quot;#4D4D4D&quot;&gt;[Software System]&lt;/font&gt;&lt;/div&gt;" placeholders="1" A_NAME="E-comerce Paul" id="PS28_7j9qNm59eFhncqT-1">
          <mxCell style="rounded=1;whiteSpace=wrap;html=1;dashed=1;arcSize=20;strokeColor=#666666;fontColor=#333333;labelBackgroundColor=none;align=left;verticalAlign=bottom;labelBorderColor=none;spacingTop=0;spacing=10;dashPattern=8 4;metaEdit=1;rotatable=0;perimeter=rectanglePerimeter;noLabel=0;labelPadding=0;allowArrows=0;connectable=0;expand=0;recursiveResize=0;editable=1;pointerEvents=1;absoluteArcSize=1;fillColor=#F5F5F5;" vertex="1" parent="1">
            <mxGeometry x="43" y="243" width="1087" height="627" as="geometry" />
          </mxCell>
        </object>
        <object label="&lt;font style=&quot;font-size: 14px&quot;&gt;&lt;b&gt;%A_NAME%&lt;/b&gt;&lt;/font&gt;&lt;br&gt;&lt;div&gt;&lt;font style=&quot;font-size: 11px&quot;&gt;[Person]&lt;/font&gt;&lt;/div&gt;&lt;div style=&quot;font-size: 6px&quot;&gt;&lt;br&gt;&lt;/div&gt;&lt;div style=&quot;font-size: 11px&quot;&gt;&lt;font color=&quot;#CCCCCC&quot;&gt;%B_DESCRIPTION%&lt;/font&gt;&lt;/div&gt;" A_NAME="Customer" B_DESCRIPTION="Cliente en búsqueda de un producto" placeholders="1" id="PS28_7j9qNm59eFhncqT-2">
          <mxCell style="shape=stencil(tZTdboMwDIWfJpdFIVnHbiu6vUca3GEVEpRk6s/TL+BULVpTTWorceNz4OM42DBZ+1YNwAQ3qgcm10yI9qhtv9BviwGctyYq0W7JK9851ftUf6Ra+QF0IHGLB2hI9sHZHeyxCQmApgWHYXTlJ+OreM94yVpbYyIBrfEz58qPMIUmPssPBOPFkl5zTDVVMTf2EMCljKQy8fV/8BxbVM8Cl68C80LMz6J8Hvll4OoBsqyjkhsaWW+U3n07+2Oam3kmx40Tm/nmuTk/7wE/z73THk9pcyS/fwpb7DraiFxDmdjxUevgTj/QdTh4uHSzvLkZqZtq3kz1cOw/6SaVfi2T8As=);whiteSpace=wrap;html=1;rounded=1;fontColor=#ffffff;strokeColor=#000054;fillColor=#000084;spacing=5;spacingTop=65;arcSize=30;metaEdit=1;allowArrows=0;expand=0;recursiveResize=0;rotatable=0;resizable=0;" vertex="1" parent="1">
            <mxGeometry x="284" y="28" width="180" height="160" as="geometry" />
          </mxCell>
        </object>
        <object label="&lt;font style=&quot;font-size: 14px&quot;&gt;&lt;b&gt;%A_NAME%&lt;/b&gt;&lt;/font&gt;&lt;br&gt;&lt;div&gt;&lt;font style=&quot;font-size: 11px&quot;&gt;[Software System]&lt;/font&gt;&lt;/div&gt;&lt;div style=&quot;font-size: 6px&quot;&gt;&lt;br&gt;&lt;/div&gt;&lt;div style=&quot;font-size: 11px&quot;&gt;&lt;font color=&quot;#CCCCCC&quot;&gt;%B_DESCRIPTION%&lt;/font&gt;&lt;/div&gt;" placeholders="1" A_NAME="Logictic APP" B_DESCRIPTION="Sistema de lógistica para el envío de los productos" id="PS28_7j9qNm59eFhncqT-3">
          <mxCell style="rounded=1;whiteSpace=wrap;html=1;fontColor=#ffffff;arcSize=6;metaEdit=1;points=[[0.25,0,0],[0.5,0,0],[0.75,0,0],[1,0.25,0],[1,0.5,0],[1,0.75,0],[0.75,1,0],[0.5,1,0],[0.25,1,0],[0,0.75,0],[0,0.5,0],[0,0.25,0]];resizable=0;editable=1;fillColor=#7b7484;strokeColor=#635970;movableLabel=0;allowArrows=0;rotatable=0;imageWidth=24;spacing=5;" vertex="1" parent="1">
            <mxGeometry x="850" y="443" width="220" height="100" as="geometry" />
          </mxCell>
        </object>
        <object label="&lt;font style=&quot;font-size: 14px&quot;&gt;&lt;b&gt;%A_NAME%&lt;/b&gt;&lt;/font&gt;&lt;br&gt;&lt;div&gt;&lt;font style=&quot;font-size: 11px&quot;&gt;[Software System]&lt;/font&gt;&lt;/div&gt;&lt;div style=&quot;font-size: 6px&quot;&gt;&lt;br&gt;&lt;/div&gt;&lt;div style=&quot;font-size: 11px&quot;&gt;&lt;font color=&quot;#CCCCCC&quot;&gt;%B_DESCRIPTION%&lt;/font&gt;&lt;/div&gt;" placeholders="1" A_NAME="Warehouse" B_DESCRIPTION="Sistema de control de inventarios" id="PS28_7j9qNm59eFhncqT-4">
          <mxCell style="rounded=1;whiteSpace=wrap;html=1;fontColor=#ffffff;arcSize=6;metaEdit=1;points=[[0.25,0,0],[0.5,0,0],[0.75,0,0],[1,0.25,0],[1,0.5,0],[1,0.75,0],[0.75,1,0],[0.5,1,0],[0.25,1,0],[0,0.75,0],[0,0.5,0],[0,0.25,0]];resizable=0;editable=1;fillColor=#7b7484;strokeColor=#635970;movableLabel=0;allowArrows=0;rotatable=0;imageWidth=24;spacing=5;" vertex="1" parent="1">
            <mxGeometry x="880" y="590" width="220" height="100" as="geometry" />
          </mxCell>
        </object>
        <object label="&lt;font style=&quot;font-size: 14px&quot; color=&quot;#FFFFFF&quot;&gt;&lt;b&gt;&lt;font style=&quot;font-size: 14px&quot;&gt;&lt;span&gt;%A_NAME%&lt;/span&gt;&lt;/font&gt;&lt;/b&gt;&lt;/font&gt;&lt;font color=&quot;#FFFFFF&quot;&gt;&lt;br&gt;&lt;/font&gt;&lt;div&gt;&lt;font style=&quot;font-size: 11px&quot; color=&quot;#FFFFFF&quot;&gt;[Container: %B_TECHNOLOGY%]&lt;/font&gt;&lt;/div&gt;&lt;div style=&quot;font-size: 6px&quot;&gt;&lt;font color=&quot;#FFFFFF&quot;&gt;&lt;br&gt;&lt;/font&gt;&lt;/div&gt;&lt;div style=&quot;font-size: 11px&quot;&gt;&lt;font color=&quot;#E6E6E6&quot;&gt;%C_DESCRIPTION%&lt;/font&gt;&lt;/div&gt;" A_NAME="Web application" B_TECHNOLOGY="Angular SSR" C_DESCRIPTION="Aplicación web para la venta en línea" placeholders="1" id="PS28_7j9qNm59eFhncqT-5">
          <mxCell style="shape=stencil(3VbbcoMgEP0aHuPAYtQ+pib5D4OkMjHgoB2Tfn3R9aGkanpJptM8ObvLOew5sgyEp3WRVZIA1dlREr4mAMVZmONChItW7hY7a9paWpd2awpcwEKKcYsxwBBndSVFg8m9Oskc03VjzUG2Km8GAqULaVXTVfmG0BXpCCjhqTBaOwZldO1VPtQdWaa0w9ITktFgiduchxijyu1wlI1rHXvGLIHt14l92iC+FTG7FzENwPeC3Y75bsTxL5h56jJTh4anu0wcXqx51floP33Fdid26p+PH/PLMcisqNXbMD3RvAc4C8KUxs0UxW+PI8DDNWdPz/P4vSrLcfRyy7erzXU0djBl5oRlDmqs/J6Xkedl5HnJogsvx6zk9KdeRGm4TJPr6JnyiCAWw5yk/6goSR5MEdDwwRT5YwTg30k08RUxGJEU/oGi/jb5dGn0WXxy9Il3);whiteSpace=wrap;html=1;spacingTop=12;allowArrows=0;metaEdit=1;resizable=0;rotatable=0;strokeColor=#F5F5F5;fillColor=#F5F5F5;" vertex="1" parent="1">
            <mxGeometry x="79" y="307" width="220" height="140" as="geometry" />
          </mxCell>
        </object>
        <object label="&lt;font style=&quot;font-size: 14px&quot; color=&quot;#FFFFFF&quot;&gt;&lt;b&gt;&lt;font style=&quot;font-size: 14px&quot;&gt;&lt;span&gt;%A_NAME%&lt;/span&gt;&lt;/font&gt;&lt;/b&gt;&lt;/font&gt;&lt;font color=&quot;#FFFFFF&quot;&gt;&lt;br&gt;&lt;/font&gt;&lt;div&gt;&lt;font style=&quot;font-size: 11px&quot; color=&quot;#FFFFFF&quot;&gt;[Container: %B_TECHNOLOGY%]&lt;/font&gt;&lt;/div&gt;&lt;div style=&quot;font-size: 6px&quot;&gt;&lt;font color=&quot;#FFFFFF&quot;&gt;&lt;br&gt;&lt;/font&gt;&lt;/div&gt;&lt;div style=&quot;font-size: 11px&quot;&gt;&lt;font color=&quot;#E6E6E6&quot;&gt;%C_DESCRIPTION%&lt;/font&gt;&lt;/div&gt;" A_NAME="iOS/Android Application" B_TECHNOLOGY="Native iOS /Android App" C_DESCRIPTION="Aplicación nativa de iOS / Android para la venta enlínea" placeholders="1" id="PS28_7j9qNm59eFhncqT-6">
          <mxCell style="shape=stencil(zVXLboMwEPwaH0HG5pEeUyf8h2OcYgVsZKiS9OtrWKTGKZCqTdSc0M4y491hLBBlbckbiQjWvJaIbhAh5VmYOhBxUJudqmTAm8ah7pUS+lGMoT5CTchY87aRogNwr06yALjtrDnIoyq6UUDpUlrV9V26RXiNegGMKBNGa6egjG69zkXfiXGlHRefQAyHCRxzHmuoGndCLTtpx5kBRST/ubAvG2b3Eo4eJYxD4nsR3U/5YcLZH5Qpc8hcaCjbcXF4s+ZdF5PzDB3bJ3bum0/H/PoacCta9TFennTZA7gLwlTGOgCeAw8RGm9o9PK6zN+rqppmJznN19vbbJhgzswZyxzVWLngpawq1bTyy8nUczJNPCujKyfxb5dOWZyw1W32QnsiBb3c5fD+7FnqD09WEzGIn2wjnHkrJX60Y2+jyVwn//GNhkh+S96Awm9rAD4B);whiteSpace=wrap;html=1;allowArrows=0;metaEdit=1;expand=0;recursiveResize=0;resizable=0;rotatable=0;strokeColor=#F5F5F5;fillColor=#F5F5F5;" vertex="1" parent="1">
            <mxGeometry x="474" y="303" width="220" height="140" as="geometry" />
          </mxCell>
        </object>
        <object label="&lt;font style=&quot;font-size: 14px&quot;&gt;&lt;b&gt;&lt;font style=&quot;font-size: 14px&quot;&gt;&lt;span&gt;%A_NAME%&lt;/span&gt;&lt;/font&gt;&lt;/b&gt;&lt;/font&gt;&lt;br&gt;&lt;div&gt;&lt;font style=&quot;font-size: 11px&quot;&gt;[Container: %B_TECHNOLOGY%]&lt;/font&gt;&lt;/div&gt;&lt;div style=&quot;font-size: 6px&quot;&gt;&lt;br&gt;&lt;/div&gt;&lt;div style=&quot;font-size: 11px&quot;&gt;&lt;font color=&quot;#E6E6E6&quot;&gt;%C_DESCRIPTION%&lt;/font&gt;&lt;/div&gt;" placeholders="1" A_NAME="PAUL Store API Producer" C_DESCRIPTION="API REST para la consulta y creación de pedidos" B_TECHNOLOGY=".NET9" id="PS28_7j9qNm59eFhncqT-7">
          <mxCell style="rounded=1;whiteSpace=wrap;html=1;fontColor=#ffffff;arcSize=6;metaEdit=1;points=[[0.25,0,0],[0.5,0,0],[0.75,0,0],[1,0.25,0],[1,0.5,0],[1,0.75,0],[0.75,1,0],[0.5,1,0],[0.25,1,0],[0,0.75,0],[0,0.5,0],[0,0.25,0]];resizable=0;editable=1;fillColor=#6c45c8;strokeColor=#4D319B;movableLabel=0;allowArrows=0;rotatable=0;autosize=0;align=center;spacing=5;" vertex="1" parent="1">
            <mxGeometry x="474" y="566" width="220" height="100" as="geometry" />
          </mxCell>
        </object>
        <object label="&lt;div style=&quot;font-size: 12px;&quot;&gt;&lt;b style=&quot;font-size: 12px;&quot;&gt;%A_DESCRIPTION%&lt;/b&gt;&lt;br style=&quot;font-size: 12px;&quot;&gt;&lt;/div&gt;&lt;div style=&quot;font-size: 12px;&quot;&gt;[%B_TECHNOLOGY%]&lt;/div&gt;" placeholders="1" A_DESCRIPTION="Crea y consulta pedidos" B_TECHNOLOGY="JSON/HTTP" id="PS28_7j9qNm59eFhncqT-8">
          <mxCell style="endArrow=block;html=1;fontSize=12;fontColor=#404040;strokeWidth=1;endFill=1;strokeColor=#828282;elbow=vertical;metaEdit=1;exitX=0.25;exitY=1;exitDx=0;exitDy=0;entryX=0.5;entryY=0;entryDx=0;entryDy=0;" edge="1" parent="1" source="PS28_7j9qNm59eFhncqT-2" target="PS28_7j9qNm59eFhncqT-5">
            <mxGeometry width="50" height="50" relative="1" as="geometry">
              <mxPoint x="378" y="251" as="sourcePoint" />
              <mxPoint x="618" y="251" as="targetPoint" />
            </mxGeometry>
          </mxCell>
        </object>
        <object label="&lt;div style=&quot;font-size: 12px;&quot;&gt;&lt;b style=&quot;font-size: 12px;&quot;&gt;%A_DESCRIPTION%&lt;/b&gt;&lt;br style=&quot;font-size: 12px;&quot;&gt;&lt;/div&gt;&lt;div style=&quot;font-size: 12px;&quot;&gt;[%B_TECHNOLOGY%]&lt;/div&gt;" placeholders="1" A_DESCRIPTION="Crea y consulta pedidos" B_TECHNOLOGY="JSON/HTTP" id="PS28_7j9qNm59eFhncqT-9">
          <mxCell style="endArrow=block;html=1;fontSize=12;fontColor=#404040;strokeWidth=1;endFill=1;strokeColor=#828282;elbow=vertical;metaEdit=1;exitX=0.75;exitY=1;exitDx=0;exitDy=0;entryX=0.5;entryY=0;entryDx=0;entryDy=0;jumpStyle=none;shadow=0;" edge="1" parent="1" source="PS28_7j9qNm59eFhncqT-2" target="PS28_7j9qNm59eFhncqT-6">
            <mxGeometry width="50" height="50" relative="1" as="geometry">
              <mxPoint x="339" y="198" as="sourcePoint" />
              <mxPoint x="244" y="312.9999999999999" as="targetPoint" />
            </mxGeometry>
          </mxCell>
        </object>
        <object label="&lt;font style=&quot;font-size: 14px&quot;&gt;&lt;b&gt;&lt;font style=&quot;font-size: 14px&quot;&gt;&lt;span&gt;%A_NAME%&lt;/span&gt;&lt;/font&gt;&lt;/b&gt;&lt;/font&gt;&lt;br&gt;&lt;div&gt;&lt;font style=&quot;font-size: 11px&quot;&gt;[Container: %B_TECHNOLOGY%]&lt;/font&gt;&lt;/div&gt;&lt;div style=&quot;font-size: 6px&quot;&gt;&lt;br&gt;&lt;/div&gt;&lt;div style=&quot;font-size: 11px&quot;&gt;&lt;font color=&quot;#E6E6E6&quot;&gt;%C_DESCRIPTION%&lt;/font&gt;&lt;/div&gt;" A_NAME="PAUL Store database" B_TECHNOLOGY="MongoDB" C_DESCRIPTION="Base de datos donde se guardan todos los pedidos" placeholders="1" id="PS28_7j9qNm59eFhncqT-10">
          <mxCell style="shape=cylinder3;whiteSpace=wrap;html=1;boundedLbl=1;backgroundOutline=1;size=15;rounded=1;fontColor=#ffffff;strokeColor=#4D319B;fillColor=#6c45c8;arcSize=6;autosize=0;metaEdit=1;resizable=0;rotatable=0;allowArrows=0;align=center;spacing=5;spacingTop=-5;verticalAlign=middle;" vertex="1" parent="1">
            <mxGeometry x="82" y="561" width="220" height="110" as="geometry" />
          </mxCell>
        </object>
        <object label="&lt;div style=&quot;font-size: 12px;&quot;&gt;&lt;b style=&quot;font-size: 12px;&quot;&gt;%A_DESCRIPTION%&lt;/b&gt;&lt;br style=&quot;font-size: 12px;&quot;&gt;&lt;/div&gt;&lt;div style=&quot;font-size: 12px;&quot;&gt;[%B_TECHNOLOGY%]&lt;/div&gt;" placeholders="1" A_DESCRIPTION="Delega la creación del pedido al API" B_TECHNOLOGY="JSON/HTTP" id="PS28_7j9qNm59eFhncqT-11">
          <mxCell style="endArrow=block;html=1;fontSize=12;fontColor=#404040;strokeWidth=1;endFill=1;strokeColor=#828282;elbow=vertical;metaEdit=1;exitX=0.5;exitY=1;exitDx=0;exitDy=0;entryX=0.25;entryY=0;entryDx=0;entryDy=0;entryPerimeter=0;" edge="1" parent="1" source="PS28_7j9qNm59eFhncqT-5" target="PS28_7j9qNm59eFhncqT-7">
            <mxGeometry width="50" height="50" relative="1" as="geometry">
              <mxPoint x="339" y="198" as="sourcePoint" />
              <mxPoint x="244" y="312.9999999999999" as="targetPoint" />
            </mxGeometry>
          </mxCell>
        </object>
        <object label="&lt;div style=&quot;font-size: 12px;&quot;&gt;&lt;b style=&quot;font-size: 12px;&quot;&gt;%A_DESCRIPTION%&lt;/b&gt;&lt;br style=&quot;font-size: 12px;&quot;&gt;&lt;/div&gt;&lt;div style=&quot;font-size: 12px;&quot;&gt;[%B_TECHNOLOGY%]&lt;/div&gt;" placeholders="1" A_DESCRIPTION="Delega la creación del pedido al API" B_TECHNOLOGY="JSON/HTTP" id="PS28_7j9qNm59eFhncqT-12">
          <mxCell style="endArrow=block;html=1;fontSize=12;fontColor=#404040;strokeWidth=1;endFill=1;strokeColor=#828282;elbow=vertical;metaEdit=1;exitX=0.5;exitY=1;exitDx=0;exitDy=0;entryX=0.5;entryY=0;entryDx=0;entryDy=0;entryPerimeter=0;" edge="1" parent="1" source="PS28_7j9qNm59eFhncqT-6" target="PS28_7j9qNm59eFhncqT-7">
            <mxGeometry width="50" height="50" relative="1" as="geometry">
              <mxPoint x="244" y="453" as="sourcePoint" />
              <mxPoint x="545" y="581" as="targetPoint" />
            </mxGeometry>
          </mxCell>
        </object>
        <object label="&lt;div style=&quot;font-size: 12px;&quot;&gt;&lt;b style=&quot;font-size: 12px;&quot;&gt;%A_DESCRIPTION%&lt;/b&gt;&lt;br style=&quot;font-size: 12px;&quot;&gt;&lt;/div&gt;&lt;div style=&quot;font-size: 12px;&quot;&gt;[%B_TECHNOLOGY%]&lt;/div&gt;" placeholders="1" A_DESCRIPTION="Guarda/Consulta pedidos" B_TECHNOLOGY="TCP/IP" id="PS28_7j9qNm59eFhncqT-13">
          <mxCell style="endArrow=block;html=1;fontSize=12;fontColor=#404040;strokeWidth=1;endFill=1;strokeColor=#828282;elbow=vertical;metaEdit=1;exitX=0;exitY=0.5;exitDx=0;exitDy=0;entryX=1;entryY=0.5;entryDx=0;entryDy=0;entryPerimeter=0;exitPerimeter=0;" edge="1" parent="1" source="PS28_7j9qNm59eFhncqT-7" target="PS28_7j9qNm59eFhncqT-10">
            <mxGeometry width="50" height="50" relative="1" as="geometry">
              <mxPoint x="213" y="457" as="sourcePoint" />
              <mxPoint x="516" y="576" as="targetPoint" />
            </mxGeometry>
          </mxCell>
        </object>
        <object label="&lt;div style=&quot;font-size: 12px;&quot;&gt;&lt;b style=&quot;font-size: 12px;&quot;&gt;%A_DESCRIPTION%&lt;/b&gt;&lt;br style=&quot;font-size: 12px;&quot;&gt;&lt;/div&gt;&lt;div style=&quot;font-size: 12px;&quot;&gt;[%B_TECHNOLOGY%]&lt;/div&gt;" placeholders="1" A_DESCRIPTION="Programa la entrega del pedido" B_TECHNOLOGY="XML/HTTP" id="PS28_7j9qNm59eFhncqT-14">
          <mxCell style="endArrow=block;html=1;fontSize=12;fontColor=#404040;strokeWidth=1;endFill=1;strokeColor=#828282;elbow=vertical;metaEdit=1;exitX=1;exitY=0.25;exitDx=0;exitDy=0;entryX=0;entryY=0.5;entryDx=0;entryDy=0;entryPerimeter=0;exitPerimeter=0;" edge="1" parent="1" source="PS28_7j9qNm59eFhncqT-7" target="PS28_7j9qNm59eFhncqT-3">
            <mxGeometry x="-0.154" y="-7" width="50" height="50" relative="1" as="geometry">
              <mxPoint x="620" y="453" as="sourcePoint" />
              <mxPoint x="620" y="576" as="targetPoint" />
              <mxPoint as="offset" />
            </mxGeometry>
          </mxCell>
        </object>
        <object label="&lt;div style=&quot;font-size: 12px;&quot;&gt;&lt;b style=&quot;font-size: 12px;&quot;&gt;%A_DESCRIPTION%&lt;/b&gt;&lt;br style=&quot;font-size: 12px;&quot;&gt;&lt;/div&gt;&lt;div style=&quot;font-size: 12px;&quot;&gt;[%B_TECHNOLOGY%]&lt;/div&gt;" placeholders="1" A_DESCRIPTION="Actualiza el inventario" B_TECHNOLOGY="JSON/HTTP" id="PS28_7j9qNm59eFhncqT-15">
          <mxCell style="endArrow=block;html=1;fontSize=12;fontColor=#404040;strokeWidth=1;endFill=1;strokeColor=#828282;elbow=vertical;metaEdit=1;entryX=0;entryY=0.5;entryDx=0;entryDy=0;entryPerimeter=0;" edge="1" parent="1" source="zNEmRn6fYeCxFh2HNrjv-4" target="PS28_7j9qNm59eFhncqT-4">
            <mxGeometry width="50" height="50" relative="1" as="geometry">
              <mxPoint x="730" y="601" as="sourcePoint" />
              <mxPoint x="801" y="491" as="targetPoint" />
            </mxGeometry>
          </mxCell>
        </object>
        <mxCell id="zNEmRn6fYeCxFh2HNrjv-5" value="" style="edgeStyle=orthogonalEdgeStyle;rounded=0;orthogonalLoop=1;jettySize=auto;html=1;" edge="1" parent="1" source="zNEmRn6fYeCxFh2HNrjv-2" target="zNEmRn6fYeCxFh2HNrjv-4">
          <mxGeometry relative="1" as="geometry" />
        </mxCell>
        <mxCell id="zNEmRn6fYeCxFh2HNrjv-2" value="" style="shape=image;verticalLabelPosition=bottom;labelBackgroundColor=default;verticalAlign=top;aspect=fixed;imageAspect=0;image=data:image/png,iVBORw0KGgoAAAANSUhEUgAAAHMAAACQCAYAAAA7k1TKAAAJ0GlDQ1BJQ0MgUHJvZmlsZQAASImVlndUFMkWxqt7cgKGGYYMQ06S0wCSc5IgWVSGGXJwGDImRBZXYEUREQFlQZeo4KoEWQMiioFFQAHzDrIIKOtiQFRQXgNn3fDOe++875zq+6vb1fdU1f2jPwBIRmweLx4WASAhMYXv62zHDAoOYeKmAAlIADFABaZsTjLP1tvbAyD6I/5d70cAtBzvai/X+vf3/1VUbkQyBwDIG+FwbjInAeFzCItwePwUhHsQVkpP4S3zFMJ0PrJBhBeXOWqFl3cP6OGrrLyyxs/XHmEWAHgym82PAoDogOSZaZwopA6Ri7BeIjcmEeEShK0SErYgOeI9hNWRNTyEl+uzwv9SJ+pvNcO/1mSzo77y6llWhHeISebFszP/z+v430qIT+X8ZUpOichIWQb7LbxMfkxUdArTFulCBNM1kaOzhmmgZ2AEwHJPV5e/vb/SK4iB/zPHe4Z0Vg4Ayr4/c0HIefY7Ild56s+cdgsAOkcBOP2Gk8pPW82hlx8YQATCgA4kgRxQAupAGxgAE2ABbIAjcANewA8Eg02AA6JBAuCDdLAN7AJ5oADsB4dAOagCx0E9OAXOgHZwAVwB18FtMACGwSMgABPgJZgF78ECBEE4iALRIElIHlKBtCADiAVZQY6QB+QLBUNhUBSUCKVC26DdUAFUDJVD1VAD9CN0HroC3YQGoQfQGDQNvYE+wSiYDNNhWVgV1oVZsC3sDvvBG+EoOAnOgnPhfXAZXAOfhNvgK/BteBgWwC/hORRAkVAMlAJKG8VC2aO8UCGoSBQftQOVjypF1aCaUZ2oXtRdlAA1g/qIxqJpaCZaG22BdkH7oznoJPQOdCG6HF2PbkP3oO+ix9Cz6C8YCkYGo4Uxx7higjBRmHRMHqYUU4tpxVzDDGMmMO+xWCwDq4Y1xbpgg7Gx2K3YQuxRbAu2CzuIHcfO4XA4SZwWzhLnhWPjUnB5uCO4k7jLuCHcBO4DnoSXxxvgnfAh+ER8Dr4U34i/hB/CT+IXCCIEFYI5wYvAJWQSiggnCJ2EO4QJwgKRSlQjWhL9iLHEXcQyYjPxGvEx8S2JRFIkmZF8SDGkbFIZ6TTpBmmM9JEsStYk25NDyankfeQ6chf5AfkthUJRpdhQQigplH2UBspVylPKByGakI6QqxBXaKdQhVCb0JDQK2GCsIqwrfAm4SzhUuGzwneEZ0QIIqoi9iJskR0iFSLnRUZF5qg0qj7Vi5pALaQ2Um9Sp0RxoqqijqJc0VzR46JXRcdpKJoSzZ7Goe2mnaBdo03QsXQ1uis9ll5AP0Xvp8+KiYoZiQWIZYhViF0UEzBQDFWGKyOeUcQ4wxhhfBKXFbcVjxDfK94sPiQ+LyEtYSMRIZEv0SIxLPFJkinpKBkneUCyXfKJFFpKU8pHKl3qmNQ1qRlpurSFNEc6X/qM9EMZWEZTxldmq8xxmT6ZOVk5WWdZnuwR2auyM3IMORu5WLkSuUty0/I0eSv5GPkS+cvyL5hiTFtmPLOM2cOcVZBRcFFIVahW6FdYUFRT9FfMUWxRfKJEVGIpRSqVKHUrzSrLK3sqb1NuUn6oQlBhqUSrHFbpVZlXVVMNVN2j2q46pSah5qqWpdak9lidom6tnqReo35PA6vB0ojTOKoxoAlrGmtGa1Zo3tGCtUy0YrSOag2uwawxW5O4pmbNqDZZ21Y7TbtJe0yHoeOhk6PTrvNKV1k3RPeAbq/uFz1jvXi9E3qP9EX13fRz9Dv13xhoGnAMKgzuGVIMnQx3GnYYvjbSMoowOmZ035hm7Gm8x7jb+LOJqQnfpNlk2lTZNMy00nSURWd5swpZN8wwZnZmO80umH00NzFPMT9j/ruFtkWcRaPF1Fq1tRFrT6wdt1S0ZFtWWwqsmFZhVt9bCawVrNnWNdbPbJRsuDa1NpO2GraxtidtX9np2fHtWu3m7c3tt9t3OaAcnB3yHfodRR39HcsdnzopOkU5NTnNOhs7b3XucsG4uLsccBl1lXXluDa4zrqZum1363Enu693L3d/5qHpwffo9IQ93TwPej5ep7IucV27F/By9Tro9cRbzTvJ+ycfrI+3T4XPc199322+vetp6zevb1z/3s/Or8jvkb+6f6p/d4BwQGhAQ8B8oENgcaAgSDdoe9DtYKngmOCOEFxIQEhtyNwGxw2HNkyEGofmhY5sVNuYsfHmJqlN8ZsubhbezN58NgwTFhjWGLbI9mLXsOfCXcMrw2c59pzDnJdcG24JdzrCMqI4YjLSMrI4cirKMupg1HS0dXRp9EyMfUx5zOtYl9iq2Pk4r7i6uKX4wPiWBHxCWML5RNHEuMSeLXJbMrYM8rR4eTxBknnSoaRZvju/NhlK3pjckUJHfp59qeqp36SOpVmlVaR9SA9IP5tBzUjM6MvUzNybOZnllPXDVvRWztbubQrbdm0b2267vXoHtCN8R/dOpZ25OyeynbPrdxF3xe36OUcvpzjn3e7A3Z25srnZuePfOH/TlCeUx88b3WOxp+pb9Lcx3/bvNdx7ZO+XfG7+rQK9gtKCxUJO4a3v9L8r+25pX+S+/iKTomP7sfsT948csD5QX0wtzioeP+h5sK2EWZJf8u7Q5kM3S41Kqw4TD6ceFpR5lHUcUT6y/8hieXT5cIVdRUulTOXeyvmj3KNDx2yONVfJVhVUffo+5vv71c7VbTWqNaXHscfTjj8/EXCi9wfWDw21UrUFtZ/rEusE9b71PQ2mDQ2NMo1FTXBTatP0ydCTA6ccTnU0azdXtzBaCk6D06mnX/wY9uPIGfcz3WdZZ5vPqZyrbKW15rdBbZlts+3R7YKO4I7B827nuzstOlt/0vmp7oLChYqLYheLLhEv5V5aupx1ea6L1zVzJerKePfm7kdXg67e6/Hp6b/mfu3GdafrV3ttey/fsLxx4ab5zfO3WLfab5vcbusz7mv92fjn1n6T/rY7pnc6BswGOgfXDl4ash66ctfh7vV7rvduD68bHhzxH7k/GjoquM+9P/Ug/sHrh2kPFx5lP8Y8zn8i8qT0qczTml80fmkRmAgujjmM9T1b/+zROGf85a/Jvy5O5D6nPC+dlJ9smDKYujDtND3wYsOLiZe8lwszeb9Rf6t8pf7q3O82v/fNBs1OvOa/XnpT+Fbybd07o3fdc95zT98nvF+Yz/8g+aH+I+tj76fAT5ML6Yu4xbLPGp87v7h/ebyUsLTEY/PZK1YAhQw4MhKAN3WIlwgGgDaA+KINq55rRdCqT1wh8J941ZetyASAYiT4ZwPEQqyyehcAKsjc2wbJ2QDY0PDr+MMfrXi5ZZUi34tkL1Nv+BTrnz5q1ef9Zd//jOBr1b/FfwEQpKiXerckcAAAADhlWElmTU0AKgAAAAgAAYdpAAQAAAABAAAAGgAAAAAAAqACAAQAAAABAAAAc6ADAAQAAAABAAAAkAAAAACGBO/QAAAWaklEQVR4Ae2ddawdxRfHp6W4u0OR4u6aFmuLtdAgRQLFAgRPIHgozh+4Byshwd01PLxAcPfi7u7zO5/5/fZl3307Z+Xu3d27vz3Jzb13Z3fkfHdmzpxz5swAK2QaqgUHBtaiFU0jHAcaMGv0IjRgNmDWiAM1akrTMxswa8SBGjWl6ZkNmDXiQI2a0vTMBswacaBGTWl6ZgNmjThQo6Y0PbMBs0YcqFFTmp7ZgFkjDtSoKU3PrBGYg6reln///dd8++235oMPPjAfffSR+f77781ff/1lppxySjPrrLOa+eef3yy44IJmhhlmMAMGDKh6czpav8qCiTfLs88+ay699FIzceJE880335hff/3V/Pnnn4a0gQMHmimmmMJMN910ZvbZZzfDhw83O+20kxkyZIhL6yjXqpo5PkBVo9dee82uv/76duqpp7aTTTYZPkqxn0GDBtnpp5/e7rLLLvarr76qWpMKqQ9veSVIhlP7448/2lNPPdXOOOOMseBpAM8555z2hhtusL/99lsl2lZUJSoD5pdffmn32msvO80007QFZADyzDPPbI8//nj7ww8/FMXL0supBJi//PKL3X777a3MgbkAGQAqQpE9+uijrcyzpTO6iAqUDuY///xjDzjgADv55JPnCmQAqAhIdsKECUXwsvQySgfztttuy71HBkAG31NNNZV99913S2d2pyswgAKk0aXQF198YTbaaCPz8ssvq+WzBJlpppnMEkssYVZffXUjApKROdY8+uijbu353XffGenhah4bb7yxufnmm936VL2xmxM7/bb48v/777/tBRdcYBkGhX/ez2yzzWb33ntvy3IFiTdMf/zxh3366aftmDFjLPOjlo+8DLanpyf8eO1+lzbMshbcZJNNrGhtvCDMMsss9rLLLrM//fSTynhRKDhBRwOU9eq4cePs77//rubVzYmlgSnaHTvvvPN6gaSXnXzyyYmZzxJk7NixqpJh+eWXt++9914346XWvRQwGS5l/lIZL/pWyzCahgBKUzjMMccc9oEHHkiTZVfdW4rVBEX5U089pQotBx54oNO9ppFHFlpoIbPBBht4H0FJj8JeEPLe080JpYCJ5IkFxEdYP0aPHu1LVq+PGjXKm85L9PXXXxssMXWkUsCkZ4je1MtPUSAY0a9607UE7TnKxfLSgKlxMEMaJiwf0XPpRVkIE5lGYl2prd3Tz1GNI22mASSGZR8BZpwiwffs66+/7ktydk6M2NqL5H24CxJKAZPesfTSS6s95KKLLko9HIrC3lxxxRVetk877bRGlkMNmF4OZUgAzOWWW855CfgeF3ukef75533J/a4zD95+++1Glif90oILok0yCy+8cPC3dt+l9Ey4iO8OSwkfISDts88+binhuye4jmAD8OPHjzeyNg0u9/umvMGDB/e7XpcLpYHJcLfOOuuoQx4+QDvvvLN54403vPwGyCeffNL5/7z99tveNaRYTsyIESOcwt6bWcoEJGNeorvvvtuNCg8//LD59NNPU08PKYv13y7MKI3E6mHnnntuVaUnNbciLNnDDz/cytrU/vzzzxZjNt+vvvqq3W233SwmLu7TPqgOeT4robVCI/Xxxx9bGQEsqsGockW4sritbLnlllZAdvXEqFAElaLOCxoGc1B+wwANiCANA/YCCyxgF110UTvPPPOo6sDgGb7J/6yzzgqKTf2NL9EzzzzjdL9xVp5wuTiZiaBnL7/8civmvtTlpn2gVDCp7Pvvv2+XXHLJRGCGGZXmN9YZenIWEhWgPeGEE+x8882nWni0+uBlOHLkSPvEE0/0M+NlqZPvmdLBpGLYJBmaNIZkTWM4/PDDD33tV69jpttss81ycTLD1CdCn73pppusrKPVcrMmVgJM5qOHHnrIYtXIClrUcwxxr7zySqbeIDpcO3To0MRTQFT5UdfEYdtee+21meoUB3IlwKSSvK2PPPKIFdeQxHNhFLO4xly16qqrOiDjGBCVjjEcb8GkDti+eviuy/LIitUod0ArAyZMpYfK8sJut912rpdqXghRjELQQUDaf//97eeffx6FU+w13DIvueQS1S4aVXbaa8OGDbP0/jypVIcuYUAksX577LHHjAxHRoZfI3OeEfE+8l4u4vC1yCKLuHXktttua1ZZZRWDlikLYe/cdNNNjSx71Mel1xoRisyKK65oRLo2WHowr73wwgvuWdqgEfeL976RF0+7LV1anm9G3nkx3L311ltOtMchS1rW78OelPvvv9+5gwgD26oCQ/0pp5zihumosoJreN0ffPDBVpT6VnaoOdcWejQSM+vQe++91y1Jgvt930jIWaXsqIZWapiNqiDXJk2a5FUuHHroobnNPWJ2c2tYH/O5LlsJ7X333ad6yTNdsG8GSVjLi2nk4osv9jU79fXS1HnSyMSE5wGfKJJ50psWdb92DdWcOEt7b2FPKFYZfH0ZJn1EXWVHmpG51/n5+uouaBnxPsxN/dcVYPqYlvf1G2+8kZHKmy2O1NLbvOmtCewbPeqoo4xsYmpN6v3/0ksvGVnP9v5v50cDZoh7orwI/ev7E1vonnvuaUSb0zdB+ceogTCG7dZHCHaiBfMlp7regBlil2YLxbeI7fa+ITOUTZ+f9E5RV3qtQzK/JjLz9cnU86cBM8QYbbhju32aXhlkyxKGl0CbY0VYCm5v67sBM8Q+bW2KX5I2n4ay6fcTg7n2bNre3q+A/12oPJgMQ7IW8zpMy1rU8NGY5Wt863Uxq7Ve6v2PAzXlpCWAfOedd7zehgDJUJwHZVOT5FFyTB5EF2HLHh88DmBmFIkVws05K6ywgllvvfWcwMGyIAstvvjiXq8GhmC0OwgzDJ1J6ZNPPnEaId/LhpA0OC9XFimkUoSCgK3rop5z+lGU5sI49SNvt9uwy66xZZZZxp555plOM5O2Yeecc45ajjihWeybSQmtENsWsWf62sDOtbziLjA8VYKw5hNpBBcRX8PTXMd2ePXVV6uamnDDUctJz44tmy37SUl8l+xcc82l5rn11lsnzS72vtLBRIWGjnPNNdfM3XZIwIutttrKivLcq/JDNyoumpZdZ0leFiwz6GVxA/H59uCjhJuJeAOqeWJiQ4+bF5UKJorx6667zqt3TcLcJPfgbYCttNXCD8gHHXSQJcxMknyCewBh7bXXdoEvZB51jmLileeMAij9ydNnGAjy4BubKy9zXlQamAyr4rWeu3dBmFnh3yJk2Hvuucf1JkDl92qrrZY5OAbztGiFXO9beeWV7RprrOEsJWzbB+xw2VG/iSYG8HlSKWAyPLHZlobDlKjG5n2NcsSb3d51113ObZOeU1TZrW2hXOI0MBznSaWASRgXfGFaG1nEf3pNHIiki8Ym9zmc9pH3uuuu6+bxPIEkr8LBxM4nnuypgYQJ+KzyEiAhIvXmFZot/BJhr0QYw0H7sMMOc0NpOL2d37RB1sP2xRdfzBtHl1+hSgNenvPOO8+5hAhTEpEA5hTVInAYFANsa0BPihIBdxKRGt32BPFI8GpZEhUkN8nQ6ywj++67rytHBBQjL4457bTT1J3eSfJHVYgdFFeRpZZaKskj6e/pyCviyVTUWqn8YxFaJkioNByl8X6PIgQpXEtOOumkVHkLp/qMDvQYBJJW1xMW/o8//rhzu8wa2w/vexypCfbYSSpsmMWVgvVZEo0OjJZIXA7EpKI7YLO2Q1nQCpT2H4B23313y9KCOkYR0i9KBZQQaJi0/MJpTAsIOigPfC9jVHlZrxUGJo5OSRjBvIKY39pDkjaQcpJsRoLpqNLo+WkYDeDiXuI2D9GbWaOyzAA48sNJi01DKCIINlUkFQbmrbfeatGdht/cqN9sCmLYbIdQECRZtAM62qesBLC8dPi/MoSiY006kmQtU3uuEBOYNNDF/ZHGCn5+QtgR3acz5vrvik8RZYCR8N5e636QAyYt2cwT/E39LaOIM1gTnwEzFvESNJto6gJSPlAImDBNAhl6bZJBnXEmlh1bqYM5Bc8H3zhF77DDDkazT3KvCE9OGsbwXAcqDEzNhRFGYtdj6SHbC9rmKz0GV41ll11WzQsQJ02alMnorGZcUmIhYMq8YuL8XNimzloyr2FK5mf3cvCSaMTQT5SSOpDe0pxayJwpEqOaGw5PeUYCAUQW/Ay5GlEv6lcHKgRMGCWSn8ovhkbNg0192JNILydfjaiXSIjaLV2TVgiY9BJRcKtMgal5D3cIOHHCDfWKG4rVilcosRAw6XFxPqcMd7LLOTfWiBrOCTdxQyj1Yg9JHagQMHHtRyDRCOaz5kNYyoMCb7q4IZSoXSju60CFgMlpB5x8oBFMF9OQ0QIZas+H0xiyyYe1rUbMqYsttpjhZasDFQImmh3Ry8ZKlviYijK77bmT3o3ZyudrGwAHiGK7jBWSgvur/l0ImAgZMA21l0bMb6L4dvZJ7b64NI5p7OnpiZVSUb+xSysrIVxxvgpb5hlVUEAgdJVGmuI2zzSU0FhDpKGxHxTyWZXtsscysZMW4dKOOOKIVL442DevuuoqK4Zm5/GACU2G694P3g94A8r2v8JPaijMasKLwZZv3DKSAIo56c4773SWCJkD1fdKeoizN55++umpXUnwCSIuAtYT8okiGTGcOyVb7nFCS1J/7gFoXGQkyEausQui6si1QsHEVCQuE4mZgY1wxx13dG6RGI9bmU0vwQuBszJlV3NkYMKkjCfkDLZNjNBhwpNBtr67egN80vzC92Hv3GOPPZyROpx33r8LDx0jvc1sscUWaigYYUQvsaDHNwdpmPAwqPzQ46LrZXMsYUn5sFNMmNP7XJYfrDnZ5n7ccccZNhGhxDjyyCNdHIM4YSquPNrBpqNzzz3XiHdeZ4SuvN+OuPwYsjj0VBqf+iOqOecCyVCNKyT/s+SjPcP8R5Swa665xgWXohzt/rRpbIPo1EE5hQ6zAdAMZXiTp2VEu/cDPkNe1uGy3fKD55lqOKgubyoFTAQaibLhfIJk+CkEVAAcJiHOcK6SpYtz/OpEzw4Ai/vGTyjN9sAkwJcCJhVDmJGQalYMyB0ZLluZueGGG/YKIMHLRBxalhKt9yb5z4uAZIvD9DbbbOMCJ5LfkCFDEp3Sy1Rx5ZVXJsEo8T2lgRkASghRGJ2EgVnuYQ7cddddI2POiv7W7QlN6s0XlM+Sg32VEpPduWiyLZB9I0wfhBpngy1eesH9vm8RshKfQpgE0VLBpIL0EjmZ1p544om5bgWAgYDETjPxQfLygvM0JWB/IjdQ8mRaYJhmm4Vv/YuQJ5K267U+ILlO7yb2bF5UOphBQxh25ZQhK6fsOcVC1vkMZrPtnDCn2ibboNzgm54lHn1qbyLvNLHeiUAdF7IcTZLvpQjqlvS7MmAGFaanEFgXAYFhiA1CDJXaG87ygSjSRH7GOx0hx7erOSgn6pvRQSsHAUrr5a158oLS85CgffmiGMkr7mzlwAwYAiM4uoLT4mXh7j1Tmu0I7DNh7cbW9HbecrRIPqajx80SX502sNXCly+CENsq8qDKghluHEp6FttRDEGvCvB5EN70UWVwjfIR1tISKsdxynEfjCoYB/KgQkxgwoy2SOYq7/Myt+bmwyOhwL3lYC7DLpuWBCx3TJZMFd5HRQr2pqVJ8HMpTS7NvZXgQANmCAbtVFwU+1n8kzC4YxDg20dx/lG+51qvN2CGOCLam9C/vj9FuDJvvvlmrP9v36eMYejGH0nmxNYk958pRObjyLS0FxswQxzj1EAfyZLJnHHGGal6pwhmLvaf5qTGnJqXJ38DZgi9MWPGqHZGjnY8//zzQ0/oP3FQGz9+vLoxif012GvzoAbMEBcZZsV/J3Sl709CcIvPkAuygeHaN3RyH8Mrhm4M5z5CEpcjI9UXyPds5PU81jedyoP1IzuSsa74Dn5baaWVnDkN/W47CgPawPOcNoQiXZjl/bA2lF7sFBW4rbAORh2I0gLTnvReb33D+aLhSrMFP47PhbuNRL5RERcJC8O50xIo0HDCAC6Nwux+d7J+E4W6kZBnZvPNN3cuKe1Ih5999pkRVaLb6d2vsNAFehVrTzYII8CIJsedgkAIG/LQpFeywUWFYzDGjh0byrXNn3FoF52OOenss892ellUaNK8RB8U88SyI44drpBZtULodFHbdTqCGNE26dF5UqXUeVgZRo0aFTvMxQGM1QSFe1ZLPkPfIYcc0nY9fPXErxbXzrypMmBi/2P+o4f5mJDmOm4iWF5w0cxCoiCwckhcIq+BNPUaLIGqkAHand+j2lQJMLE7Ens1DVOS3AugDGcIR1kIoWa//fZLFPImrj68pEwBRPvqBJC0r3QwcbUYMWJE7kAGzMUWynmaWedQnKCxSRKQKqtXHzGJGPYZfToFZOlg0rAkRxwGwGT9xmZ4xx13ZOmc7hncQCbJQQDEv0tzlDJLHDmL0/b09KQyametaKk9E+cn5pAkIHFywfXXX+9sisSrJZz2hRdemFjqxLEZv512iN6NtI0hXOIMRfosMZziF8tJDPREXoRO9sZwe0oDk0Yec8wxqsSIzw1gY7z1La4RVFjK4F6iCU+4Z7BkyZOoE/MxygJZWzr3D+bZosBrbUtpYBKwcK211lJ7JWG4CeIbN99hzSdwv09LRM8H6NGjRxeyG6uVyUX9L003i4YHk5JG4glnBPBYTwIsD2h/RPL07s4WhrrThCi3rlQKmNLTDGovGaK8fBWXSzN8+PBYIIMM2BkmG5LUc7VQCcaFfQvy68bvUsDEqvDcc89F6loDJkrQXW8vC+5p/WabvXiat17u/Y+3gHjLMbX0XqvTj1LApGdiufcR1vehQ4f6ktXrDMs+EsHEBa2g/DpSKWDCSM2qgCUEq0IWEodj72P0SJFAm57p5VDGBIQWH9FzMP5mIYZSH4lE60xVfNeRSumZohZzESd9DAXMBx980JesXpeQ3t50hm9OZqf8OlIpYNIrib+j9RDZFqcKSFFgEHcAg7aPMCbLdga1XN+z3XC9FDDpIVjotSBP9DA5gSA2KmXAZLznCP6gLXfwiyXIRV2pFDBhJj2EiB4aEXx/4sSJsZFJAPKWW25xjlaiDYrMkheI8jixqLZUlKqptRxUcMcee6wa5EkAcCfrEYcHnWcUscWOXWBsrEVlJ0BFftDNcshMnalUhy60QCNHjnQx53y9hXmVDTsMj9wrW+bdqQicsI6zlxz55BQBLDk0Ivi+GIaNtnTRnu+KtDLfVKwLnDONAVmY1bEP+Xcq9k6Z/GstuzSrSVARhk+2vncKTHxcOTa4LLNU0M4ivksHk0bilaftLs4KND0SZ+U0W9eLYHqnyqgEmDSOkKSc+JoVuNbn6JE4c2X1zusUwzuZb2XAZBiUjTYOgKyOUwGgACnLGuc3+/8wvAYvSGXADCqEKwahQvEoxxErACjum2UJzs+yjkzknRCUV6fvUpcmApCXUM1JQCYjp7e7pQsms6jlB9YVDnBjB5eEPTMytNZ7+eHlmDGVBZM6S69xextZj3ISAi4fBHNAES9ujM6rAE2SeO65IBAAq+l7FT7UIqnSYIY5DLAy//XR1WL3RE3X0H850DVgNoDFc6B5reN51DV3NGB2DVTxFW3AjOdR19zRgNk1UMVXtAEznkddc0cDZtdAFV/RBsx4HnXNHf8B859TZhtpgOkAAAAASUVORK5CYII=;" vertex="1" parent="1">
          <mxGeometry x="550.46" y="744" width="67.08" height="84" as="geometry" />
        </mxCell>
        <mxCell id="zNEmRn6fYeCxFh2HNrjv-3" style="edgeStyle=orthogonalEdgeStyle;rounded=0;orthogonalLoop=1;jettySize=auto;html=1;entryX=0.5;entryY=1;entryDx=0;entryDy=0;entryPerimeter=0;" edge="1" parent="1" source="zNEmRn6fYeCxFh2HNrjv-2" target="PS28_7j9qNm59eFhncqT-7">
          <mxGeometry relative="1" as="geometry" />
        </mxCell>
        <mxCell id="zNEmRn6fYeCxFh2HNrjv-6" value="Publica evento actualizar inventario" style="edgeLabel;html=1;align=center;verticalAlign=middle;resizable=0;points=[];" vertex="1" connectable="0" parent="zNEmRn6fYeCxFh2HNrjv-3">
          <mxGeometry x="-0.2574" y="-4" relative="1" as="geometry">
            <mxPoint as="offset" />
          </mxGeometry>
        </mxCell>
        <object label="&lt;font style=&quot;font-size: 14px&quot;&gt;&lt;b&gt;&lt;font style=&quot;font-size: 14px&quot;&gt;&lt;span&gt;%A_NAME%&lt;/span&gt;&lt;/font&gt;&lt;/b&gt;&lt;/font&gt;&lt;br&gt;&lt;div&gt;&lt;font style=&quot;font-size: 11px&quot;&gt;[Container: %B_TECHNOLOGY%]&lt;/font&gt;&lt;/div&gt;&lt;div style=&quot;font-size: 6px&quot;&gt;&lt;br&gt;&lt;/div&gt;&lt;div style=&quot;font-size: 11px&quot;&gt;&lt;font color=&quot;#E6E6E6&quot;&gt;%C_DESCRIPTION%&lt;/font&gt;&lt;/div&gt;" placeholders="1" A_NAME="PAUL Store Consumer API" C_DESCRIPTION="API REST para la consulta y creación de pedidos" B_TECHNOLOGY=".NET9" id="zNEmRn6fYeCxFh2HNrjv-4">
          <mxCell style="rounded=1;whiteSpace=wrap;html=1;fontColor=#ffffff;arcSize=6;metaEdit=1;points=[[0.25,0,0],[0.5,0,0],[0.75,0,0],[1,0.25,0],[1,0.5,0],[1,0.75,0],[0.75,1,0],[0.5,1,0],[0.25,1,0],[0,0.75,0],[0,0.5,0],[0,0.25,0]];resizable=0;editable=1;fillColor=#6c45c8;strokeColor=#4D319B;movableLabel=0;allowArrows=0;rotatable=0;autosize=0;align=center;spacing=5;" vertex="1" parent="1">
            <mxGeometry x="694" y="736" width="220" height="100" as="geometry" />
          </mxCell>
        </object>
      </root>
    </mxGraphModel>
  </diagram>
  <diagram id="8L6drjEsH9fX_0HyVPIo" name="Diagrama Codigo">
    <mxGraphModel dx="1434" dy="854" grid="1" gridSize="10" guides="1" tooltips="1" connect="1" arrows="1" fold="1" page="1" pageScale="1" pageWidth="850" pageHeight="1100" math="0" shadow="0">
      <root>
        <mxCell id="0" />
        <mxCell id="1" parent="0" />
        <mxCell id="_ihP_sDTaZnQLglb1Ib2-2" value="Order API" style="html=1;dropTarget=0;fontFamily=Helvetica;fontSize=12;fontColor=#000000;align=left;strokeColor=#000000;fillColor=#f5f5f5;verticalAlign=top;" vertex="1" parent="1">
          <mxGeometry x="20" y="90" width="1020" height="570" as="geometry" />
        </mxCell>
        <mxCell id="_ihP_sDTaZnQLglb1Ib2-3" value="&lt;p style=&quot;margin: 0px ; margin-top: 4px ; text-align: center&quot;&gt;&lt;i&gt;&amp;lt;&amp;lt;RestController&amp;gt;&amp;gt;&lt;/i&gt;&lt;br&gt;&lt;b&gt;OrderController&lt;/b&gt;&lt;/p&gt;&lt;hr size=&quot;1&quot;&gt;&lt;p style=&quot;margin: 0px ; margin-left: 4px&quot;&gt;&lt;/p&gt;&lt;p style=&quot;margin: 0px ; margin-left: 4px&quot;&gt;+ create(request: OrderRequestDTO) : OrderResponseDTO&lt;/p&gt;&lt;p style=&quot;margin: 0px ; margin-left: 4px&quot;&gt;+ cancel(orderId: Long): Void&lt;/p&gt;&lt;p style=&quot;margin: 0px ; margin-left: 4px&quot;&gt;+ findById(orderId: Long): OrderResponseDTO&lt;/p&gt;" style="verticalAlign=top;align=left;overflow=fill;fontSize=12;fontFamily=Helvetica;html=1;fillColor=#dae8fc;strokeColor=#6c8ebf;" vertex="1" parent="1">
          <mxGeometry x="393" y="190" width="340" height="100" as="geometry" />
        </mxCell>
        <mxCell id="_ihP_sDTaZnQLglb1Ib2-4" value="&lt;p style=&quot;margin: 0px ; margin-top: 4px ; text-align: center&quot;&gt;&lt;i&gt;&amp;lt;&amp;lt;Service&amp;gt;&amp;gt;&lt;/i&gt;&lt;br&gt;&lt;b&gt;OrderService&lt;/b&gt;&lt;/p&gt;&lt;hr size=&quot;1&quot;&gt;&lt;p style=&quot;margin: 0px ; margin-left: 4px&quot;&gt;&lt;/p&gt;&lt;p style=&quot;margin: 0px ; margin-left: 4px&quot;&gt;+ create(order: Order) : Order&lt;/p&gt;&lt;p style=&quot;margin: 0px ; margin-left: 4px&quot;&gt;+ cancel(orderId: Long): Void&lt;/p&gt;&lt;p style=&quot;margin: 0px ; margin-left: 4px&quot;&gt;+ findById(orderId: Long): Order&lt;/p&gt;" style="verticalAlign=top;align=left;overflow=fill;fontSize=12;fontFamily=Helvetica;html=1;fillColor=#d5e8d4;strokeColor=#82b366;" vertex="1" parent="1">
          <mxGeometry x="413" y="380" width="300" height="100" as="geometry" />
        </mxCell>
        <object label="Utiliza" id="_ihP_sDTaZnQLglb1Ib2-5">
          <mxCell style="html=1;verticalAlign=bottom;endArrow=open;dashed=1;endSize=8;shadow=0;exitX=0.5;exitY=1;exitDx=0;exitDy=0;entryX=0.5;entryY=0;entryDx=0;entryDy=0;" edge="1" parent="1" source="_ihP_sDTaZnQLglb1Ib2-3" target="_ihP_sDTaZnQLglb1Ib2-4">
            <mxGeometry relative="1" as="geometry">
              <mxPoint x="653" y="410" as="sourcePoint" />
              <mxPoint x="573" y="410" as="targetPoint" />
            </mxGeometry>
          </mxCell>
        </object>
        <object label="Crea" id="_ihP_sDTaZnQLglb1Ib2-6">
          <mxCell style="html=1;verticalAlign=bottom;endArrow=open;dashed=1;endSize=8;shadow=0;exitX=1;exitY=0.812;exitDx=0;exitDy=0;entryX=0;entryY=0.25;entryDx=0;entryDy=0;exitPerimeter=0;" edge="1" parent="1" source="_ihP_sDTaZnQLglb1Ib2-4" target="_ihP_sDTaZnQLglb1Ib2-7">
            <mxGeometry relative="1" as="geometry">
              <mxPoint x="573" y="300" as="sourcePoint" />
              <mxPoint x="303" y="530" as="targetPoint" />
            </mxGeometry>
          </mxCell>
        </object>
        <mxCell id="_ihP_sDTaZnQLglb1Ib2-7" value="&lt;p style=&quot;margin: 0px ; margin-top: 4px ; text-align: center&quot;&gt;&lt;i&gt;&amp;lt;&amp;lt;Entity&amp;gt;&amp;gt;&lt;/i&gt;&lt;br&gt;&lt;b&gt;Order&lt;/b&gt;&lt;/p&gt;&lt;hr size=&quot;1&quot;&gt;&lt;p style=&quot;margin: 0px ; margin-left: 4px&quot;&gt;&lt;br&gt;&lt;/p&gt;" style="verticalAlign=top;align=left;overflow=fill;fontSize=12;fontFamily=Helvetica;html=1;fillColor=#fff2cc;strokeColor=#d6b656;" vertex="1" parent="1">
          <mxGeometry x="843" y="480" width="140" height="60" as="geometry" />
        </mxCell>
        <mxCell id="_ihP_sDTaZnQLglb1Ib2-8" value="&lt;p style=&quot;margin: 0px ; margin-top: 4px ; text-align: center&quot;&gt;&lt;i&gt;&amp;lt;&amp;lt;DTO&amp;gt;&amp;gt;&lt;/i&gt;&lt;br&gt;&lt;b&gt;OrderRequestDRO&lt;/b&gt;&lt;/p&gt;&lt;hr size=&quot;1&quot;&gt;&lt;p style=&quot;margin: 0px ; margin-left: 4px&quot;&gt;&lt;br&gt;&lt;/p&gt;" style="verticalAlign=top;align=left;overflow=fill;fontSize=12;fontFamily=Helvetica;html=1;fillColor=#fff2cc;strokeColor=#d6b656;" vertex="1" parent="1">
          <mxGeometry x="83" y="267.5" width="190" height="60" as="geometry" />
        </mxCell>
        <object label="Utiliza" id="_ihP_sDTaZnQLglb1Ib2-9">
          <mxCell style="html=1;verticalAlign=bottom;endArrow=open;dashed=1;endSize=8;shadow=0;exitX=0;exitY=0.75;exitDx=0;exitDy=0;entryX=1;entryY=0.5;entryDx=0;entryDy=0;" edge="1" parent="1" source="_ihP_sDTaZnQLglb1Ib2-3" target="_ihP_sDTaZnQLglb1Ib2-8">
            <mxGeometry relative="1" as="geometry">
              <mxPoint x="573" y="300" as="sourcePoint" />
              <mxPoint x="573" y="390" as="targetPoint" />
            </mxGeometry>
          </mxCell>
        </object>
        <mxCell id="_ihP_sDTaZnQLglb1Ib2-10" value="&lt;p style=&quot;margin: 0px ; margin-top: 4px ; text-align: center&quot;&gt;&lt;i&gt;&amp;lt;&amp;lt;DTO&amp;gt;&amp;gt;&lt;/i&gt;&lt;br&gt;&lt;b&gt;OrderResponseDTO&lt;/b&gt;&lt;/p&gt;&lt;hr size=&quot;1&quot;&gt;&lt;p style=&quot;margin: 0px ; margin-left: 4px&quot;&gt;&lt;br&gt;&lt;/p&gt;" style="verticalAlign=top;align=left;overflow=fill;fontSize=12;fontFamily=Helvetica;html=1;fillColor=#fff2cc;strokeColor=#d6b656;" vertex="1" parent="1">
          <mxGeometry x="83" y="167.5" width="190" height="60" as="geometry" />
        </mxCell>
        <object label="Crea" id="_ihP_sDTaZnQLglb1Ib2-11">
          <mxCell style="html=1;verticalAlign=bottom;endArrow=open;dashed=1;endSize=8;shadow=0;exitX=0;exitY=0.25;exitDx=0;exitDy=0;entryX=1;entryY=0.5;entryDx=0;entryDy=0;" edge="1" parent="1" source="_ihP_sDTaZnQLglb1Ib2-3" target="_ihP_sDTaZnQLglb1Ib2-10">
            <mxGeometry relative="1" as="geometry">
              <mxPoint x="402.99999999999955" y="275" as="sourcePoint" />
              <mxPoint x="232.99999999999955" y="320" as="targetPoint" />
            </mxGeometry>
          </mxCell>
        </object>
        <mxCell id="_ihP_sDTaZnQLglb1Ib2-12" value="&lt;p style=&quot;margin: 0px ; margin-top: 4px ; text-align: center&quot;&gt;&lt;i&gt;&amp;lt;&amp;lt;Exception&amp;gt;&amp;gt;&lt;/i&gt;&lt;br&gt;&lt;b&gt;ValidateServiceException&lt;/b&gt;&lt;/p&gt;&lt;hr size=&quot;1&quot;&gt;&lt;p style=&quot;margin: 0px ; margin-left: 4px&quot;&gt;&lt;br&gt;&lt;/p&gt;" style="verticalAlign=top;align=left;overflow=fill;fontSize=12;fontFamily=Helvetica;html=1;fillColor=#f8cecc;strokeColor=#b85450;" vertex="1" parent="1">
          <mxGeometry x="818" y="270" width="190" height="60" as="geometry" />
        </mxCell>
        <mxCell id="_ihP_sDTaZnQLglb1Ib2-13" value="&lt;p style=&quot;margin: 0px ; margin-top: 4px ; text-align: center&quot;&gt;&lt;i&gt;&amp;lt;&amp;lt;Exception&amp;gt;&amp;gt;&lt;/i&gt;&lt;br&gt;&lt;b&gt;GeneralServiceException&lt;/b&gt;&lt;/p&gt;&lt;hr size=&quot;1&quot;&gt;&lt;p style=&quot;margin: 0px ; margin-left: 4px&quot;&gt;&lt;br&gt;&lt;/p&gt;" style="verticalAlign=top;align=left;overflow=fill;fontSize=12;fontFamily=Helvetica;html=1;fillColor=#f8cecc;strokeColor=#b85450;" vertex="1" parent="1">
          <mxGeometry x="818" y="365" width="190" height="60" as="geometry" />
        </mxCell>
        <object label="throws" id="_ihP_sDTaZnQLglb1Ib2-14">
          <mxCell style="html=1;verticalAlign=bottom;endArrow=open;dashed=1;endSize=8;shadow=0;exitX=1;exitY=0.5;exitDx=0;exitDy=0;entryX=0;entryY=0.5;entryDx=0;entryDy=0;" edge="1" parent="1" source="_ihP_sDTaZnQLglb1Ib2-4" target="_ihP_sDTaZnQLglb1Ib2-13">
            <mxGeometry relative="1" as="geometry">
              <mxPoint x="573" y="300" as="sourcePoint" />
              <mxPoint x="573" y="390" as="targetPoint" />
            </mxGeometry>
          </mxCell>
        </object>
        <object label="throws" id="_ihP_sDTaZnQLglb1Ib2-15">
          <mxCell style="html=1;verticalAlign=bottom;endArrow=open;dashed=1;endSize=8;shadow=0;exitX=1;exitY=0.25;exitDx=0;exitDy=0;entryX=0;entryY=0.5;entryDx=0;entryDy=0;" edge="1" parent="1" source="_ihP_sDTaZnQLglb1Ib2-4" target="_ihP_sDTaZnQLglb1Ib2-12">
            <mxGeometry relative="1" as="geometry">
              <mxPoint x="723" y="465" as="sourcePoint" />
              <mxPoint x="893" y="510" as="targetPoint" />
            </mxGeometry>
          </mxCell>
        </object>
        <mxCell id="_ihP_sDTaZnQLglb1Ib2-16" value="&lt;p style=&quot;margin: 0px ; margin-top: 4px ; text-align: center&quot;&gt;&lt;i&gt;&amp;lt;&amp;lt;JpaRepository&amp;gt;&amp;gt;&lt;/i&gt;&lt;br&gt;&lt;b&gt;OrderRespository&lt;/b&gt;&lt;/p&gt;&lt;hr size=&quot;1&quot;&gt;&lt;p style=&quot;margin: 0px ; margin-left: 4px&quot;&gt;&lt;/p&gt;&lt;p style=&quot;margin: 0px ; margin-left: 4px&quot;&gt;&lt;br&gt;&lt;/p&gt;" style="verticalAlign=top;align=left;overflow=fill;fontSize=12;fontFamily=Helvetica;html=1;fillColor=#e1d5e7;strokeColor=#9673a6;" vertex="1" parent="1">
          <mxGeometry x="413" y="580" width="300" height="60" as="geometry" />
        </mxCell>
        <object label="Utiliza" id="_ihP_sDTaZnQLglb1Ib2-17">
          <mxCell style="html=1;verticalAlign=bottom;endArrow=open;dashed=1;endSize=8;shadow=0;exitX=0.5;exitY=1;exitDx=0;exitDy=0;" edge="1" parent="1" source="_ihP_sDTaZnQLglb1Ib2-4" target="_ihP_sDTaZnQLglb1Ib2-16">
            <mxGeometry relative="1" as="geometry">
              <mxPoint x="573" y="300" as="sourcePoint" />
              <mxPoint x="573" y="390" as="targetPoint" />
            </mxGeometry>
          </mxCell>
        </object>
        <object label="Crea" id="_ihP_sDTaZnQLglb1Ib2-18">
          <mxCell style="html=1;verticalAlign=bottom;endArrow=open;dashed=1;endSize=8;shadow=0;exitX=1;exitY=0.25;exitDx=0;exitDy=0;entryX=0;entryY=0.75;entryDx=0;entryDy=0;" edge="1" parent="1" source="_ihP_sDTaZnQLglb1Ib2-16" target="_ihP_sDTaZnQLglb1Ib2-7">
            <mxGeometry relative="1" as="geometry">
              <mxPoint x="498" y="490" as="sourcePoint" />
              <mxPoint x="288" y="540" as="targetPoint" />
            </mxGeometry>
          </mxCell>
        </object>
        <mxCell id="_ihP_sDTaZnQLglb1Ib2-19" value="" style="rounded=0;orthogonalLoop=1;jettySize=auto;html=1;endArrow=none;endFill=0;shadow=0;exitX=0.5;exitY=0;exitDx=0;exitDy=0;" edge="1" parent="1" source="_ihP_sDTaZnQLglb1Ib2-3" target="_ihP_sDTaZnQLglb1Ib2-20">
          <mxGeometry relative="1" as="geometry">
            <mxPoint x="513" y="75" as="sourcePoint" />
          </mxGeometry>
        </mxCell>
        <mxCell id="_ihP_sDTaZnQLglb1Ib2-20" value="" style="ellipse;whiteSpace=wrap;html=1;fontFamily=Helvetica;fontSize=12;fontColor=#000000;align=center;strokeColor=#000000;fillColor=#ffffff;points=[];aspect=fixed;resizable=0;rotation=-10;direction=south;" vertex="1" parent="1">
          <mxGeometry x="558" y="110" width="10" height="10" as="geometry" />
        </mxCell>
        <mxCell id="_ihP_sDTaZnQLglb1Ib2-21" value="&lt;p style=&quot;margin: 0px ; margin-top: 4px ; text-align: center&quot;&gt;&lt;i&gt;&amp;lt;&amp;lt;Interfaz&amp;gt;&amp;gt;&lt;/i&gt;&lt;br&gt;&lt;b&gt;JpaRepository&lt;/b&gt;&lt;/p&gt;&lt;hr size=&quot;1&quot;&gt;&lt;p style=&quot;margin: 0px ; margin-left: 4px&quot;&gt;&lt;/p&gt;&lt;p style=&quot;margin: 0px ; margin-left: 4px&quot;&gt;&lt;br&gt;&lt;/p&gt;" style="verticalAlign=top;align=left;overflow=fill;fontSize=12;fontFamily=Helvetica;html=1;" vertex="1" parent="1">
          <mxGeometry x="843" y="580" width="140" height="60" as="geometry" />
        </mxCell>
        <mxCell id="_ihP_sDTaZnQLglb1Ib2-22" value="Extends" style="endArrow=block;endSize=16;endFill=0;html=1;shadow=0;entryX=0;entryY=0.5;entryDx=0;entryDy=0;exitX=1;exitY=0.5;exitDx=0;exitDy=0;" edge="1" parent="1" source="_ihP_sDTaZnQLglb1Ib2-16" target="_ihP_sDTaZnQLglb1Ib2-21">
          <mxGeometry width="160" relative="1" as="geometry">
            <mxPoint x="613" y="670" as="sourcePoint" />
            <mxPoint x="773" y="670" as="targetPoint" />
          </mxGeometry>
        </mxCell>
        <mxCell id="_ihP_sDTaZnQLglb1Ib2-23" value="&lt;p style=&quot;margin: 0px ; margin-top: 4px ; text-align: center&quot;&gt;&lt;i&gt;&amp;lt;&amp;lt;Service&amp;gt;&amp;gt;&lt;/i&gt;&lt;br&gt;&lt;b&gt;Email Sender&lt;/b&gt;&lt;/p&gt;&lt;hr size=&quot;1&quot;&gt;&lt;p style=&quot;margin: 0px ; margin-left: 4px&quot;&gt;&lt;/p&gt;&lt;p style=&quot;margin: 0px ; margin-left: 4px&quot;&gt;+ create(request: SenderRequest) : Void&lt;/p&gt;" style="verticalAlign=top;align=left;overflow=fill;fontSize=12;fontFamily=Helvetica;html=1;fillColor=#d5e8d4;strokeColor=#82b366;" vertex="1" parent="1">
          <mxGeometry x="53" y="372.5" width="240" height="70" as="geometry" />
        </mxCell>
        <object label="" id="_ihP_sDTaZnQLglb1Ib2-24">
          <mxCell style="html=1;verticalAlign=bottom;endArrow=open;dashed=1;endSize=8;shadow=0;exitX=0;exitY=0.25;exitDx=0;exitDy=0;entryX=1;entryY=0.5;entryDx=0;entryDy=0;" edge="1" parent="1" source="_ihP_sDTaZnQLglb1Ib2-4" target="_ihP_sDTaZnQLglb1Ib2-23">
            <mxGeometry relative="1" as="geometry">
              <mxPoint x="423" y="465" as="sourcePoint" />
              <mxPoint x="333" y="525" as="targetPoint" />
            </mxGeometry>
          </mxCell>
        </object>
        <mxCell id="_ihP_sDTaZnQLglb1Ib2-25" value="Envía Emails" style="edgeLabel;html=1;align=center;verticalAlign=middle;resizable=0;points=[];" vertex="1" connectable="0" parent="_ihP_sDTaZnQLglb1Ib2-24">
          <mxGeometry x="-0.1176" y="-1" relative="1" as="geometry">
            <mxPoint as="offset" />
          </mxGeometry>
        </mxCell>
        <mxCell id="_ihP_sDTaZnQLglb1Ib2-26" value="&lt;p style=&quot;margin: 0px ; margin-top: 4px ; text-align: center&quot;&gt;&lt;i&gt;&amp;lt;&amp;lt;Facade&amp;gt;&amp;gt;&lt;/i&gt;&lt;br&gt;&lt;b&gt;WarehouseFacade&lt;/b&gt;&lt;/p&gt;&lt;hr size=&quot;1&quot;&gt;&lt;p style=&quot;margin: 0px ; margin-left: 4px&quot;&gt;&lt;/p&gt;&lt;p style=&quot;margin: 0px ; margin-left: 4px&quot;&gt;+ output(request: OutputRequest) : Void&lt;/p&gt;" style="verticalAlign=top;align=left;overflow=fill;fontSize=12;fontFamily=Helvetica;html=1;fillColor=#e1d5e7;strokeColor=#9673a6;" vertex="1" parent="1">
          <mxGeometry x="53" y="492.5" width="240" height="70" as="geometry" />
        </mxCell>
        <object label="" id="_ihP_sDTaZnQLglb1Ib2-27">
          <mxCell style="html=1;verticalAlign=bottom;endArrow=open;dashed=1;endSize=8;shadow=0;exitX=0;exitY=0.75;exitDx=0;exitDy=0;entryX=1;entryY=0.5;entryDx=0;entryDy=0;" edge="1" parent="1" source="_ihP_sDTaZnQLglb1Ib2-4" target="_ihP_sDTaZnQLglb1Ib2-26">
            <mxGeometry relative="1" as="geometry">
              <mxPoint x="423" y="415" as="sourcePoint" />
              <mxPoint x="253" y="415" as="targetPoint" />
            </mxGeometry>
          </mxCell>
        </object>
        <mxCell id="_ihP_sDTaZnQLglb1Ib2-28" value="Salidas de inventario" style="edgeLabel;html=1;align=center;verticalAlign=middle;resizable=0;points=[];" vertex="1" connectable="0" parent="_ihP_sDTaZnQLglb1Ib2-27">
          <mxGeometry x="-0.1176" y="-1" relative="1" as="geometry">
            <mxPoint as="offset" />
          </mxGeometry>
        </mxCell>
      </root>
    </mxGraphModel>
  </diagram>
</mxfile>
